<svg xmlns="http://www.w3.org/2000/svg" viewBox="0 0 48 48" width="48" height="48">
  <rect width="48" height="48" rx="8" fill="#1f6feb"/>
  <path d="M24 6C15.72 6 9 12.72 9 21c0 11.25 15 27 15 27s15-15.75 15-27c0-8.28-6.72-15-15-15z" fill="#fff" opacity="0.9"/>
  <circle cx="24" cy="21" r="6" fill="#1f6feb" opacity="0.6"/>
  <circle cx="24" cy="21" r="3" fill="#fff" opacity="0.9"/>
  <path d="M14 14l4-4m16 4l-4-4M14 28l4 4m16-4l-4 4" stroke="#fff" stroke-width="1.5" stroke-linecap="round" opacity="0.6"/>
  <circle cx="14" cy="14" r="1.5" fill="#3fb950"/>
  <circle cx="34" cy="14" r="1.5" fill="#3fb950"/>
  <circle cx="14" cy="28" r="1.5" fill="#d29922"/>
  <circle cx="34" cy="28" r="1.5" fill="#d29922"/>
</svg>
